<svg version="1.1" id="Layer_1" xmlns="http://www.w3.org/2000/svg" xmlns:xlink="http://www.w3.org/1999/xlink" x="0px" y="0px"
	 width="100%" viewBox="0 0 644 644" enable-background="new 0 0 644 644" xml:space="preserve">
<path fill="#FEFEFE" opacity="1.000000" stroke="none" 
	d="
M373.000000,645.000000 
	C248.666718,645.000000 124.833420,645.000000 1.000100,645.000000 
	C1.000067,430.333466 1.000067,215.666916 1.000033,1.000273 
	C215.666458,1.000182 430.332916,1.000182 644.999512,1.000091 
	C644.999695,215.666382 644.999695,430.332764 644.999878,644.999573 
	C554.500000,645.000000 464.000000,645.000000 373.000000,645.000000 
M140.060806,504.134430 
	C139.790726,505.097168 139.520660,506.059906 138.779526,507.583771 
	C133.884613,512.884766 132.146332,512.741577 120.459549,506.022369 
	C115.521667,510.059570 110.553551,514.121521 105.390778,518.342590 
	C110.877304,524.202576 117.217560,527.627930 124.393677,529.514282 
	C144.760468,534.868164 161.934479,523.541138 163.562088,503.330688 
	C163.657028,484.084625 163.759094,464.838623 163.842758,445.592499 
	C163.869339,439.479706 163.846909,433.366699 163.846909,426.802795 
	C156.353241,426.802795 149.244934,426.783661 142.137512,426.852661 
	C141.732788,426.856567 141.335037,427.581421 140.797699,428.903564 
	C140.714111,453.902100 140.630539,478.900635 140.651779,503.723145 
	C140.651779,503.723145 140.451767,503.678894 140.060806,504.134430 
M571.439880,577.044861 
	C568.851746,576.637207 567.967041,577.735046 567.995544,580.334534 
	C568.147888,594.214111 568.167236,608.095093 568.393005,622.817810 
	C570.156311,622.939087 571.919556,623.060364 573.951721,623.200073 
	C573.951721,608.185364 573.951721,593.589783 574.101990,578.494751 
	C574.039429,578.332520 573.976929,578.170288 573.933960,577.395996 
	C573.392273,577.350891 572.850647,577.305786 571.439880,577.044861 
M293.682068,421.259674 
	C286.547729,420.781403 279.413361,420.303101 271.842224,419.795563 
	C271.842224,422.408661 271.842285,424.041870 271.842224,425.675049 
	C271.841705,445.305847 271.809906,464.936737 271.851410,484.567444 
	C271.879852,498.033386 272.010132,511.499084 272.257568,525.703613 
	C284.164856,529.112671 296.277802,530.974792 308.672943,529.898376 
	C322.176422,528.725708 332.935608,522.740295 339.041321,510.322296 
	C346.075104,496.016724 346.475739,481.152802 340.213593,466.483337 
	C335.831360,456.217682 327.580475,451.199799 316.342529,450.618317 
	C307.434601,450.157410 300.451813,454.177246 293.830597,458.133118 
	C293.754364,446.157654 293.678131,434.182220 293.682068,421.259674 
M371.194763,619.013306 
	C362.480988,618.899597 353.767212,618.785889 344.895386,617.821289 
	C344.779480,615.368225 344.663574,612.915100 344.538147,610.260498 
	C342.376709,610.260498 340.515686,610.260498 338.604980,610.260498 
	C338.604980,614.677673 338.604980,618.753479 338.604980,623.065735 
	C349.090149,623.065735 359.230865,623.131958 369.366333,622.930542 
	C370.117035,622.915649 370.829468,620.976135 371.194763,619.013306 
M333.279602,605.877136 
	C339.726868,605.877136 346.174164,605.877136 352.688934,605.877136 
	C352.919342,608.829773 353.094025,611.068237 353.265076,613.260010 
	C355.699890,613.260010 357.744965,613.260010 359.878082,613.260010 
	C359.988159,610.739441 360.080780,608.618958 360.191193,606.090820 
	C365.188416,606.090820 369.957153,606.090820 375.985840,606.090820 
	C375.056183,604.083801 374.474518,602.828064 372.991302,601.366150 
	C360.701111,601.402954 348.410553,601.503174 336.121063,601.428589 
	C333.314575,601.411499 331.945709,602.084229 333.279602,605.877136 
M223.811569,601.438110 
	C219.851791,600.987183 215.892014,600.536255 211.704544,599.392944 
	C211.675629,598.665161 211.646698,597.937317 211.872879,596.321960 
	C211.673203,595.425415 211.473511,594.528931 211.897446,593.254639 
	C215.173599,591.505127 218.368134,589.004578 216.891159,585.158142 
	C215.862381,582.479004 212.886871,579.161560 210.341675,578.731995 
	C204.616150,577.765625 198.486664,577.696167 192.787643,578.729248 
	C190.123596,579.212158 187.111282,582.715088 185.985764,585.538452 
	C184.454468,589.379700 187.722321,591.865417 190.736816,594.569275 
	C190.717972,595.486328 190.699112,596.403320 190.601959,598.154480 
	C189.149399,598.934814 187.696838,599.715149 185.539474,600.126465 
	C184.038132,600.256775 182.536789,600.387085 180.163651,600.613708 
	C179.745163,601.929199 179.326675,603.244629 178.740158,605.088257 
	C193.379944,605.088257 207.096680,605.143677 220.810410,604.965515 
	C221.740295,604.953491 222.647354,603.184021 223.811569,601.438110 
M310.679535,606.998413 
	C310.679535,598.272888 310.679535,589.547302 310.679535,580.531311 
	C300.606018,580.531311 290.926971,580.531311 280.858185,580.531311 
	C280.926239,582.083435 280.989563,583.528320 281.352783,585.796936 
	C288.897308,585.796936 296.441833,585.796936 304.464508,585.796936 
	C304.464508,594.131653 304.464508,601.508850 304.464508,609.796448 
	C306.927399,609.025574 308.716888,608.465515 310.679535,606.998413 
M370.694794,579.224548 
	C369.116394,579.486328 367.537994,579.748169 365.782776,580.715515 
	C365.826813,581.679443 365.870850,582.643311 365.075165,584.037231 
	C358.389771,583.998779 351.704376,583.960266 345.079681,583.101074 
	C344.985382,581.685059 344.891052,580.269104 344.776611,578.550720 
	C342.672424,578.710876 340.949036,578.841980 339.353333,578.963379 
	C339.353333,584.924133 339.353333,590.350220 339.353333,596.031677 
	C349.979431,596.031677 360.354431,596.031677 370.874908,596.031677 
	C370.874908,590.539490 370.874908,585.258057 370.694794,579.224548 
M554.079102,580.837402 
	C549.384827,580.882446 544.690613,580.927490 539.152893,580.956726 
	C538.691406,591.067017 538.229858,601.177307 537.761292,611.442078 
	C545.721863,611.442078 552.611572,611.442078 559.693359,611.442078 
	C559.693359,601.105103 559.693359,591.078491 559.693359,580.771790 
	C557.938171,580.850281 556.470154,580.915955 554.079102,580.837402 
M532.063477,604.377625 
	C531.707092,604.248169 531.350647,604.118713 530.084778,603.746216 
	C519.060730,603.820679 508.036682,603.895142 496.124298,603.818054 
	C493.402740,604.215637 490.681213,604.613220 487.764587,605.665344 
	C487.838318,606.108765 487.912048,606.552124 487.868042,607.500122 
	C487.934967,607.659302 488.001862,607.818542 488.395294,608.782104 
	C494.484283,608.782104 500.573273,608.782104 507.073273,608.782104 
	C507.073273,614.307739 507.073273,619.063477 507.073273,624.020386 
	C509.416779,624.020386 511.336304,624.020386 513.855591,624.020386 
	C513.855591,618.957153 513.855591,614.077026 513.855591,608.971436 
	C520.229187,608.971436 526.009216,608.971436 532.255493,608.971436 
	C532.173096,607.480713 532.104370,606.236633 532.063477,604.377625 
M421.039276,577.183289 
	C419.482208,576.758057 417.925171,576.332825 415.801819,575.752930 
	C415.801819,580.055481 415.801819,583.502930 414.950409,587.220398 
	C412.959839,587.290344 410.957947,587.528015 408.981171,587.394104 
	C405.274963,587.143127 404.663666,588.825012 405.934235,592.317139 
	C408.963135,592.317139 412.053162,592.317139 415.358643,592.317139 
	C415.358643,597.288818 415.358643,601.814697 415.358643,606.779541 
	C406.406952,606.779541 397.829041,606.779541 388.847168,606.779541 
	C388.964264,608.612183 389.051392,609.976196 389.164886,611.752869 
	C398.175354,611.752869 406.774750,611.752869 415.846375,611.752869 
	C415.846375,615.751770 415.846375,619.320374 415.846375,623.246887 
	C417.903809,623.082825 419.440704,622.960205 420.986389,622.836914 
	C420.986389,607.574158 420.986389,592.786743 421.039276,577.183289 
M157.885254,609.862366 
	C157.885254,613.980042 157.885254,618.097717 157.885254,622.331177 
	C159.901718,622.331177 161.430283,622.331177 163.291321,622.331177 
	C163.291321,614.367065 163.291321,606.761719 163.291321,598.943848 
	C165.220123,598.943848 166.813110,598.943848 168.880753,598.943848 
	C168.880753,607.014099 168.880753,614.921143 168.880753,623.224854 
	C170.897003,623.116150 172.415771,623.034241 173.935760,622.952271 
	C173.935760,607.719604 173.935760,592.987183 173.935760,578.151978 
	C172.170914,578.151978 170.642120,578.151978 168.771973,578.151978 
	C168.771973,583.404541 168.771973,588.341187 168.771973,593.511963 
	C166.868851,593.511963 165.312042,593.511963 163.279602,593.511963 
	C163.279602,588.535522 163.279602,583.788269 163.279602,578.891724 
	C161.232498,578.891724 159.662994,578.891724 158.029297,578.891724 
	C158.029297,588.817810 158.029297,598.449768 157.321198,608.270752 
	C151.278275,603.776978 147.529968,598.148926 148.092163,589.878052 
	C150.031631,589.878052 151.723770,590.141968 153.269974,589.780945 
	C154.225723,589.557861 154.959396,588.383728 155.792786,587.636597 
	C154.959015,587.074585 154.181992,586.177612 153.278915,586.024658 
	C151.706406,585.758179 150.056152,585.950500 148.216751,585.950500 
	C148.053513,583.748291 147.923279,581.991516 147.788147,580.168457 
	C145.958038,580.168457 144.413208,580.168457 142.839233,580.168457 
	C142.619370,582.220215 142.432739,583.961975 142.209702,586.043335 
	C139.646286,586.043335 137.390869,586.043335 134.632690,586.043335 
	C134.867783,592.431030 140.237747,588.306763 142.430038,590.757324 
	C143.167206,599.059143 138.150314,604.811768 131.723740,609.988770 
	C133.356644,611.276917 134.479324,612.162598 136.056656,613.406921 
	C139.285614,609.859009 142.364273,606.476257 145.210861,603.348450 
	C147.796280,606.243774 150.410309,609.171143 152.945511,612.010254 
	C155.008804,610.759827 156.516678,609.846008 157.885254,609.862366 
M496.119324,468.922516 
	C496.116333,474.710388 495.996002,480.501099 496.137512,486.285431 
	C496.355194,495.183350 496.752655,504.076843 496.945923,513.735962 
	C498.122009,519.051697 499.858704,524.351868 505.030762,526.841187 
	C516.471130,532.347351 527.773682,530.379089 539.345581,525.540649 
	C537.642029,520.292419 536.130249,515.634888 534.605042,510.936096 
	C528.103882,511.341095 520.919189,515.196716 517.946167,505.053528 
	C517.957642,492.700592 517.969055,480.347687 518.917847,467.938904 
	C524.495422,467.938904 530.072937,467.938904 535.727295,467.938904 
	C535.727295,462.494507 535.727295,457.629150 535.727295,452.239777 
	C529.726318,452.239777 524.012390,452.239777 517.857178,452.239777 
	C517.857178,444.498169 517.857178,437.271881 517.857178,429.222992 
	C512.778503,430.309326 508.302979,431.266663 502.988495,432.292542 
	C497.430176,432.631195 495.388092,435.447205 496.075226,441.025085 
	C496.515411,444.598175 495.924835,448.298187 494.900940,451.823364 
	C491.992584,451.823364 489.084198,451.823364 486.073547,451.823364 
	C486.073547,457.361908 486.073547,462.382416 486.073547,467.984253 
	C489.566772,467.984253 492.818512,467.984253 496.119324,468.922516 
M220.723022,451.068329 
	C218.778305,451.301483 216.833603,451.534637 214.113281,451.846710 
	C213.075729,451.897217 212.038193,451.947754 210.205688,451.754364 
	C204.714523,454.180206 199.223358,456.606079 193.117371,459.207855 
	C184.015762,466.661896 180.290070,476.639069 179.223373,488.030853 
	C177.665421,504.669342 184.785095,519.671631 197.846680,526.639282 
	C211.764771,534.063843 231.778000,532.073608 243.489960,522.100342 
	C259.585175,508.394501 261.400757,477.838623 246.927216,462.333191 
	C241.558731,456.581970 234.977509,452.876556 226.658615,451.688293 
	C226.102478,451.784607 225.546326,451.880951 224.217499,451.884277 
	C223.181396,451.840637 222.145279,451.796997 220.723022,451.068329 
M428.815155,453.099091 
	C422.261292,453.099091 415.707458,453.099091 408.852386,453.099091 
	C408.852386,466.809784 408.821838,480.432983 408.859558,494.055939 
	C408.915771,514.358154 409.020142,534.660278 409.435791,555.757019 
	C416.212921,555.757019 422.990021,555.757019 430.396912,555.757019 
	C430.396912,546.286621 430.396912,537.138550 430.396912,527.646057 
	C432.979156,528.344421 434.872894,528.897339 436.786957,529.367737 
	C451.620270,533.012878 465.903961,527.775757 474.234283,514.998596 
	C483.372833,500.981842 484.651154,485.754150 479.123230,470.134003 
	C474.271393,456.424164 463.879700,449.398407 449.506714,451.035828 
	C443.113831,451.764099 437.040131,455.293915 430.628052,457.622437 
	C430.486359,457.283661 429.793854,455.627960 428.815155,453.099091 
M413.069122,50.876534 
	C357.201691,50.864624 301.334290,50.847797 245.466858,50.850796 
	C241.316620,50.851017 237.166397,50.993526 232.146454,50.919529 
	C191.449768,52.366047 156.981125,87.669220 156.884216,128.367554 
	C156.743393,187.508072 156.715424,246.649460 156.872971,305.789856 
	C156.985474,348.021118 192.969910,383.833618 235.213882,383.911957 
	C293.354950,384.019775 351.496521,384.035004 409.637543,383.922699 
	C454.195374,383.836639 489.876617,347.875092 489.870422,303.378326 
	C489.862549,246.736374 489.745422,190.093964 489.948242,133.452728 
	C490.027069,111.440315 483.355316,92.163971 468.248474,76.133553 
	C453.587189,60.575954 435.534882,51.933746 413.069122,50.876534 
M357.911102,474.437775 
	C356.691986,475.125732 354.463593,475.751617 354.416840,476.511719 
	C354.103271,481.609955 354.253754,486.736755 354.253754,491.918945 
	C367.904816,491.918945 380.969513,491.918945 394.087708,491.918945 
	C394.087708,486.050049 394.087708,480.490997 394.087708,474.436920 
	C382.123718,474.436920 370.482574,474.436920 357.911102,474.437775 
M86.814110,583.101135 
	C84.169456,583.671265 79.695274,583.542786 79.168610,584.921814 
	C74.821800,596.303833 71.206779,607.965393 67.375137,619.527039 
	C71.246742,621.012268 73.084221,619.863708 73.970490,616.395874 
	C74.527939,614.214661 75.365974,610.615723 76.610725,610.371948 
	C80.770325,609.557190 85.267067,609.435608 89.424873,610.195923 
	C90.885231,610.462891 92.205162,613.925842 92.772018,616.138855 
	C93.904236,620.558960 96.419739,620.778625 100.483681,619.428406 
	C96.047989,607.299011 91.728310,595.486816 86.814110,583.101135 
M316.462067,612.802002 
	C309.812897,612.802002 303.163757,612.802002 295.935181,612.802002 
	C295.935181,606.680115 295.935181,600.941772 295.935181,595.316040 
	C293.595154,595.316040 291.841278,595.316040 289.801788,595.316040 
	C289.801788,597.262817 289.805634,598.918457 289.801178,600.574158 
	C289.767487,613.148132 289.766785,613.138184 277.331757,613.351685 
	C276.222382,613.370728 275.117157,613.629517 273.683502,613.820374 
	C273.865265,615.498230 274.013580,616.867188 274.145966,618.089111 
	C288.726349,618.089111 302.849274,618.089111 317.550720,618.089111 
	C317.420044,616.305969 317.304901,614.734802 316.462067,612.802002 
M464.506653,580.771851 
	C458.716248,580.771851 452.925842,580.771851 447.203522,580.771851 
	C447.203522,588.521606 447.203522,595.768250 447.203522,603.120117 
	C458.449677,603.120117 469.396851,603.120117 480.576172,603.120117 
	C480.576172,601.669495 480.576172,600.438904 480.576172,598.722412 
	C471.262268,598.722412 462.168152,598.722412 452.849365,598.722412 
	C452.849365,594.312561 452.849365,590.387390 452.849365,585.962036 
	C461.406677,585.962036 469.823792,585.962036 478.513916,585.962036 
	C478.513916,584.077271 478.513916,582.688416 478.513916,580.773071 
	C474.078278,580.773071 469.788391,580.773071 464.506653,580.771851 
M516.074524,600.781860 
	C523.247803,598.134949 526.208496,594.892639 525.988953,589.924255 
	C525.752136,584.564270 521.878540,580.342773 514.507690,579.496216 
	C509.584534,578.930786 504.322205,579.755737 499.437439,580.912231 
	C495.507965,581.842651 493.197449,585.209229 492.912048,589.456665 
	C492.608398,593.976013 494.735260,597.780884 498.799500,598.873962 
	C504.094879,600.298279 509.769562,600.312378 516.074524,600.781860 
M259.148346,622.819824 
	C260.818695,620.374573 264.137604,617.610413 263.741852,615.565002 
	C263.247925,613.012207 259.944000,609.558228 257.412018,609.135254 
	C251.534256,608.153381 245.336609,608.253967 239.375900,608.902161 
	C235.576324,609.315430 232.029404,611.753113 231.951157,616.398071 
	C231.870529,621.184387 235.635895,622.828979 239.360596,623.938354 
	C245.757172,625.843567 252.169693,625.618103 259.148346,622.819824 
M189.933609,622.711121 
	C197.460175,626.055969 205.140656,626.332764 212.476486,622.652100 
	C214.575836,621.598694 216.720123,618.517456 216.833008,616.265320 
	C216.930313,614.323669 214.600113,611.390137 212.593323,610.369690 
	C205.386063,606.704773 197.819092,606.874695 190.613785,610.555908 
	C184.813873,613.519043 184.503738,617.532227 189.933609,622.711121 
M228.047913,598.905273 
	C227.393784,600.359680 226.739639,601.814026 225.879593,603.726196 
	C241.576584,603.726196 255.975098,603.726196 270.635925,603.726196 
	C270.635925,602.134827 270.635925,600.768372 270.635925,598.880005 
	C263.632385,598.880005 256.902588,598.880005 250.054550,598.880005 
	C249.902283,595.811401 249.775558,593.257446 249.651978,590.766968 
	C247.095398,590.766968 245.053329,590.766968 242.942230,590.766968 
	C242.817505,593.570740 242.709335,596.002563 242.580170,598.906189 
	C237.829590,598.906189 233.386383,598.906189 228.047913,598.905273 
M452.406708,612.864441 
	C448.464355,612.864441 444.522034,612.864441 440.129517,612.864441 
	C440.261505,614.918518 440.357971,616.419189 440.443146,617.744446 
	C455.590149,617.744446 470.134735,617.744446 484.710022,617.744446 
	C484.710022,616.029663 484.710022,614.628601 484.710022,612.748718 
	C478.383759,612.748718 472.326019,612.748718 466.288513,612.748718 
	C466.061951,610.513367 465.884399,608.761719 465.708160,607.023010 
	C463.648376,607.023010 461.897797,607.023010 460.031982,607.023010 
	C459.877045,609.016968 459.741333,610.763611 459.578156,612.863525 
	C457.297211,612.863525 455.333740,612.863525 452.406708,612.864441 
M406.826843,596.604919 
	C400.117615,592.820007 397.698364,586.835266 398.825897,579.330261 
	C396.435089,579.330261 394.845917,579.330261 392.733978,579.330261 
	C394.043365,589.490784 389.219025,596.682739 381.802063,602.871948 
	C390.762665,606.593140 391.510010,596.900574 396.093201,594.488770 
	C399.016357,597.062256 401.838013,599.546326 404.659668,602.030457 
	C405.143402,602.034546 405.627106,602.038696 406.110840,602.042786 
	C404.747589,599.441650 411.130737,600.784119 406.826843,596.604919 
M264.694855,580.116638 
	C263.383850,579.517944 262.064392,578.386841 260.763245,578.407471 
	C252.663483,578.536316 244.560883,578.813293 236.477066,579.323730 
	C234.992249,579.417419 233.589157,580.805603 232.148331,581.596313 
	C233.541229,582.279602 234.919342,583.516052 236.329529,583.553772 
	C243.734283,583.751587 251.147156,583.646240 258.919189,583.646240 
	C258.919189,587.870422 258.919189,591.458252 258.919189,595.265320 
	C260.977295,595.265320 262.653076,595.265320 264.687378,595.265320 
	C264.687378,590.249817 264.687378,585.626099 264.694855,580.116638 
M112.043900,581.757446 
	C110.429604,581.757446 108.815300,581.757446 107.231575,581.757446 
	C107.231575,594.863403 107.231575,607.694214 107.231575,620.788818 
	C109.252045,620.626648 110.847061,620.498657 112.712685,620.348938 
	C112.712685,607.455505 112.712685,594.875732 112.043900,581.757446 
z"/>
<path fill="#16B079" opacity="1.000000" stroke="none" 
	d="
M413.987335,51.074104 
	C435.534882,51.933746 453.587189,60.575954 468.248474,76.133553 
	C483.355316,92.163971 490.027069,111.440315 489.948242,133.452728 
	C489.745422,190.093964 489.862549,246.736374 489.870422,303.378326 
	C489.876617,347.875092 454.195374,383.836639 409.637543,383.922699 
	C351.496521,384.035004 293.354950,384.019775 235.213882,383.911957 
	C192.969910,383.833618 156.985474,348.021118 156.872971,305.789856 
	C156.715424,246.649460 156.743393,187.508072 156.884216,128.367554 
	C156.981125,87.669220 191.449768,52.366047 232.885101,51.277252 
	C234.603516,51.756763 235.583267,51.984829 236.563080,51.985119 
	C294.299072,52.002323 352.035095,52.007282 409.771057,51.962177 
	C411.176727,51.961079 412.581909,51.383053 413.987335,51.074104 
M415.106171,159.246460 
	C409.044128,136.413574 392.072693,130.663727 371.170990,131.842331 
	C370.863403,128.511536 370.823059,125.829926 370.334808,123.232521 
	C369.144653,116.901360 365.022095,113.037262 358.684265,112.998512 
	C335.029144,112.853867 311.371796,112.833046 287.717072,113.008942 
	C280.805511,113.060333 276.357635,117.843559 275.860657,124.741692 
	C275.697571,127.005249 275.621094,129.275040 275.487183,131.890244 
	C272.726501,131.890244 270.411835,131.991699 268.108276,131.874619 
	C243.955826,130.647034 230.728363,148.730606 230.894806,169.271896 
	C231.202591,207.252747 230.966812,245.237915 230.988541,283.221252 
	C231.001266,305.459442 245.332123,319.818909 267.534607,319.834747 
	C304.351807,319.861023 341.169006,319.843842 377.986206,319.848572 
	C398.389526,319.851166 409.463776,311.695251 416.213928,291.738312 
	C416.477142,290.307495 416.968903,288.876892 416.970337,287.445831 
	C417.011200,246.530014 417.019989,205.614105 416.940247,164.698395 
	C416.937042,163.053482 416.020294,161.410324 415.106171,159.246460 
z"/>
<path fill="#303C4A" opacity="1.000000" stroke="none" 
	d="
M429.101349,453.972290 
	C429.793854,455.627960 430.486359,457.283661 430.628052,457.622437 
	C437.040131,455.293915 443.113831,451.764099 449.506714,451.035828 
	C463.879700,449.398407 474.271393,456.424164 479.123230,470.134003 
	C484.651154,485.754150 483.372833,500.981842 474.234283,514.998596 
	C465.903961,527.775757 451.620270,533.012878 436.786957,529.367737 
	C434.872894,528.897339 432.979156,528.344421 430.396912,527.646057 
	C430.396912,537.138550 430.396912,546.286621 430.396912,555.757019 
	C422.990021,555.757019 416.212921,555.757019 409.553162,555.058472 
	C409.781555,552.549255 409.988190,550.738586 409.989410,548.927795 
	C410.009460,518.872009 410.060760,488.816010 409.929718,458.760834 
	C409.913818,455.110413 410.841400,453.686676 414.659485,453.924622 
	C419.455811,454.223419 424.285858,453.981079 429.101349,453.972290 
M445.649780,467.489807 
	C441.305908,469.377045 436.841278,471.041077 432.691467,473.286896 
	C431.440247,473.964020 430.422424,476.243530 430.390228,477.811432 
	C430.185272,487.793243 430.225159,497.782196 430.362427,507.766357 
	C430.379700,509.021606 431.099823,510.874023 432.070465,511.414001 
	C440.267395,515.973755 452.736206,513.574219 456.285065,504.226166 
	C459.821564,494.910767 460.363525,485.422943 457.452576,475.892181 
	C455.845428,470.630096 452.248535,467.475800 445.649780,467.489807 
z"/>
<path fill="#313D4B" opacity="1.000000" stroke="none" 
	d="
M293.671173,459.067413 
	C300.451813,454.177246 307.434601,450.157410 316.342529,450.618317 
	C327.580475,451.199799 335.831360,456.217682 340.213593,466.483337 
	C346.475739,481.152802 346.075104,496.016724 339.041321,510.322296 
	C332.935608,522.740295 322.176422,528.725708 308.672943,529.898376 
	C296.277802,530.974792 284.164856,529.112671 272.460083,525.033264 
	C272.776672,518.715027 272.982086,513.067261 272.989349,507.419250 
	C273.023834,480.597443 273.084351,453.775085 272.917114,426.954254 
	C272.892242,422.971130 274.052856,421.652222 277.997131,421.918976 
	C282.641022,422.233002 287.321533,422.005249 291.992188,422.479797 
	C291.997620,433.427429 291.927887,443.908630 292.071106,454.386932 
	C292.092499,455.954071 293.112915,457.507599 293.671173,459.067413 
M319.934174,475.618469 
	C316.484283,468.270264 312.540710,465.824646 304.867310,468.102936 
	C300.818359,469.305115 297.404633,472.646759 292.965942,475.270538 
	C292.655975,475.818207 292.078827,476.364288 292.075592,476.913788 
	C292.011810,487.742371 291.974945,498.571808 292.079224,509.399597 
	C292.087555,510.264374 293.163788,511.118835 294.323792,512.499390 
	C297.090973,513.226807 300.133453,515.070679 302.572998,514.469238 
	C309.486847,512.764648 316.495605,510.549683 320.252411,502.652710 
	C322.432739,498.998230 324.391632,495.311646 321.802002,490.193848 
	C321.872253,489.128174 321.942535,488.062500 322.579163,486.493866 
	C322.142395,484.336487 321.705627,482.179108 321.013916,479.523438 
	C321.046814,479.339783 321.079712,479.156128 321.604980,478.508148 
	C321.175995,477.718292 320.747009,476.928406 319.934174,475.618469 
z"/>
<path fill="#313D4B" opacity="1.000000" stroke="none" 
	d="
M227.023941,451.937622 
	C234.977509,452.876556 241.558731,456.581970 246.927216,462.333191 
	C261.400757,477.838623 259.585175,508.394501 243.489960,522.100342 
	C231.778000,532.073608 211.764771,534.063843 197.846680,526.639282 
	C184.785095,519.671631 177.665421,504.669342 179.223373,488.030853 
	C180.290070,476.639069 184.015762,466.661896 193.827194,459.103821 
	C200.024902,456.665985 205.512772,454.332153 211.000641,451.998291 
	C212.038193,451.947754 213.075729,451.897217 214.737686,452.122986 
	C217.277786,452.183960 219.193481,451.968628 221.109177,451.753326 
	C222.145279,451.796997 223.181396,451.840637 224.751663,452.164368 
	C225.865204,452.275482 226.444565,452.106567 227.023941,451.937622 
M205.726562,507.572662 
	C208.272980,512.717529 213.448135,515.613403 218.114197,515.124390 
	C224.836548,514.419922 230.771042,510.004456 231.586136,502.501404 
	C232.398712,495.021332 232.597168,487.298920 231.674881,479.855011 
	C230.739014,472.301392 225.589020,468.352600 218.992142,468.003113 
	C211.771713,467.620636 206.502151,471.233978 204.114044,478.710022 
	C201.077667,488.215424 201.407990,497.678009 205.726562,507.572662 
z"/>
<path fill="#323E4C" opacity="1.000000" stroke="none" 
	d="
M517.874207,505.986725 
	C520.919189,515.196716 528.103882,511.341095 534.605042,510.936096 
	C536.130249,515.634888 537.642029,520.292419 539.345581,525.540649 
	C527.773682,530.379089 516.471130,532.347351 505.030762,526.841187 
	C499.858704,524.351868 498.122009,519.051697 497.297607,513.055298 
	C497.759918,498.395813 497.903046,484.416901 497.898743,470.438049 
	C497.898499,469.619934 496.707245,468.802185 496.070251,467.984253 
	C492.818512,467.984253 489.566772,467.984253 486.073547,467.984253 
	C486.073547,462.382416 486.073547,457.361908 486.073547,451.823364 
	C489.084198,451.823364 491.992584,451.823364 495.759399,451.809692 
	C497.082916,449.880615 497.852936,447.981201 497.954224,446.046783 
	C498.227142,440.834045 496.406036,434.832001 503.727905,432.689575 
	C503.800293,432.668396 503.795959,432.384979 503.827454,432.223999 
	C508.302979,431.266663 512.778503,430.309326 517.857178,429.222992 
	C517.857178,437.271881 517.857178,444.498169 517.857178,452.239777 
	C524.012390,452.239777 529.726318,452.239777 535.727295,452.239777 
	C535.727295,457.629150 535.727295,462.494507 535.727295,467.938904 
	C530.072937,467.938904 524.495422,467.938904 518.057373,468.071777 
	C516.823486,468.702789 516.127563,469.198486 516.123779,469.699371 
	C516.039612,480.976349 515.992371,492.254303 516.089478,503.530731 
	C516.096619,504.354462 517.252441,505.168304 517.874207,505.986725 
z"/>
<path fill="#303C4A" opacity="1.000000" stroke="none" 
	d="
M163.142456,504.045898 
	C161.934479,523.541138 144.760468,534.868164 124.393677,529.514282 
	C117.217560,527.627930 110.877304,524.202576 105.390778,518.342590 
	C110.553551,514.121521 115.521667,510.059570 120.459549,506.022369 
	C132.146332,512.741577 133.884613,512.884766 139.355240,507.209778 
	C140.104553,505.783478 140.278168,504.731201 140.451782,503.678894 
	C140.451767,503.678894 140.651779,503.723145 140.999588,503.627380 
	C141.567001,501.591064 141.969757,499.651337 141.978271,497.709869 
	C142.078918,474.782166 142.120636,451.854218 142.634979,428.938019 
	C147.753403,428.955109 152.432327,429.213043 157.070663,428.889435 
	C161.097015,428.608521 162.149933,430.079468 162.119125,433.984039 
	C161.949799,455.458069 162.010895,476.934204 162.086304,498.409302 
	C162.092911,500.289398 162.774429,502.167084 163.142456,504.045898 
z"/>
<path fill="#303C4A" opacity="1.000000" stroke="none" 
	d="
M358.376282,474.437347 
	C370.482574,474.436920 382.123718,474.436920 394.087708,474.436920 
	C394.087708,480.490997 394.087708,486.050049 394.087708,491.918945 
	C380.969513,491.918945 367.904816,491.918945 354.253754,491.918945 
	C354.253754,486.736755 354.103271,481.609955 354.416840,476.511719 
	C354.463593,475.751617 356.691986,475.125732 358.376282,474.437347 
z"/>
<path fill="#3A4551" opacity="1.000000" stroke="none" 
	d="
M87.111374,583.387878 
	C91.728310,595.486816 96.047989,607.299011 100.483681,619.428406 
	C96.419739,620.778625 93.904236,620.558960 92.772018,616.138855 
	C92.205162,613.925842 90.885231,610.462891 89.424873,610.195923 
	C85.267067,609.435608 80.770325,609.557190 76.610725,610.371948 
	C75.365974,610.615723 74.527939,614.214661 73.970490,616.395874 
	C73.084221,619.863708 71.246742,621.012268 67.375137,619.527039 
	C71.206779,607.965393 74.821800,596.303833 79.168610,584.921814 
	C79.695274,583.542786 84.169456,583.671265 87.111374,583.387878 
M84.420349,590.117737 
	C83.669601,589.948792 82.281082,589.572510 82.259018,589.640442 
	C80.617149,594.691101 79.083344,599.776917 77.508331,604.967468 
	C81.799545,604.967468 85.295036,604.967468 89.330772,604.967468 
	C87.674820,599.885254 86.200188,595.359497 84.420349,590.117737 
z"/>
<path fill="#2D3846" opacity="1.000000" stroke="none" 
	d="
M158.029297,608.081726 
	C158.029297,598.449768 158.029297,588.817810 158.029297,578.891724 
	C159.662994,578.891724 161.232498,578.891724 163.279602,578.891724 
	C163.279602,583.788269 163.279602,588.535522 163.279602,593.511963 
	C165.312042,593.511963 166.868851,593.511963 168.771973,593.511963 
	C168.771973,588.341187 168.771973,583.404541 168.771973,578.151978 
	C170.642120,578.151978 172.170914,578.151978 173.935760,578.151978 
	C173.935760,592.987183 173.935760,607.719604 173.935760,622.952271 
	C172.415771,623.034241 170.897003,623.116150 168.880753,623.224854 
	C168.880753,614.921143 168.880753,607.014099 168.880753,598.943848 
	C166.813110,598.943848 165.220123,598.943848 163.291321,598.943848 
	C163.291321,606.761719 163.291321,614.367065 163.291321,622.331177 
	C161.430283,622.331177 159.901718,622.331177 157.885254,622.331177 
	C157.885254,618.097717 157.885254,613.980042 157.971313,609.184753 
	C158.057373,608.507141 158.029297,608.081726 158.029297,608.081726 
z"/>
<path fill="#36414E" opacity="1.000000" stroke="none" 
	d="
M420.986389,577.999329 
	C420.986389,592.786743 420.986389,607.574158 420.986389,622.836914 
	C419.440704,622.960205 417.903809,623.082825 415.846375,623.246887 
	C415.846375,619.320374 415.846375,615.751770 415.846375,611.752869 
	C406.774750,611.752869 398.175354,611.752869 389.164886,611.752869 
	C389.051392,609.976196 388.964264,608.612183 388.847168,606.779541 
	C397.829041,606.779541 406.406952,606.779541 415.358643,606.779541 
	C415.358643,601.814697 415.358643,597.288818 415.358643,592.317139 
	C412.053162,592.317139 408.963135,592.317139 405.934235,592.317139 
	C404.663666,588.825012 405.274963,587.143127 408.981171,587.394104 
	C410.957947,587.528015 412.959839,587.290344 415.714050,586.856506 
	C416.657928,584.911316 417.093414,583.308838 416.964630,581.753113 
	C416.705566,578.623230 418.195343,577.695068 420.986389,577.999329 
z"/>
<path fill="#303C4A" opacity="1.000000" stroke="none" 
	d="
M316.825928,612.982788 
	C317.304901,614.734802 317.420044,616.305969 317.550720,618.089111 
	C302.849274,618.089111 288.726349,618.089111 274.145966,618.089111 
	C274.013580,616.867188 273.865265,615.498230 273.683502,613.820374 
	C275.117157,613.629517 276.222382,613.370728 277.331757,613.351685 
	C289.766785,613.138184 289.767487,613.148132 289.801178,600.574158 
	C289.805634,598.918457 289.801788,597.262817 289.801788,595.316040 
	C291.841278,595.316040 293.595154,595.316040 295.935181,595.316040 
	C295.935181,600.941772 295.935181,606.680115 295.935181,612.802002 
	C303.163757,612.802002 309.812897,612.802002 316.825928,612.982788 
z"/>
<path fill="#313D4B" opacity="1.000000" stroke="none" 
	d="
M465.002563,580.772461 
	C469.788391,580.773071 474.078278,580.773071 478.513916,580.773071 
	C478.513916,582.688416 478.513916,584.077271 478.513916,585.962036 
	C469.823792,585.962036 461.406677,585.962036 452.849365,585.962036 
	C452.849365,590.387390 452.849365,594.312561 452.849365,598.722412 
	C462.168152,598.722412 471.262268,598.722412 480.576172,598.722412 
	C480.576172,600.438904 480.576172,601.669495 480.576172,603.120117 
	C469.396851,603.120117 458.449677,603.120117 447.203522,603.120117 
	C447.203522,595.768250 447.203522,588.521606 447.203522,580.771851 
	C452.925842,580.771851 458.716248,580.771851 465.002563,580.772461 
z"/>
<path fill="#343F4C" opacity="1.000000" stroke="none" 
	d="
M515.677734,600.857605 
	C509.769562,600.312378 504.094879,600.298279 498.799500,598.873962 
	C494.735260,597.780884 492.608398,593.976013 492.912048,589.456665 
	C493.197449,585.209229 495.507965,581.842651 499.437439,580.912231 
	C504.322205,579.755737 509.584534,578.930786 514.507690,579.496216 
	C521.878540,580.342773 525.752136,584.564270 525.988953,589.924255 
	C526.208496,594.892639 523.247803,598.134949 515.677734,600.857605 
M499.136505,593.229065 
	C504.302307,597.393982 512.050842,598.329041 517.237976,595.289551 
	C520.272949,593.511169 522.189819,591.090942 519.925842,587.526001 
	C516.404602,581.981323 502.380157,581.900208 499.076904,587.501953 
	C498.304230,588.812317 498.801788,590.871704 499.136505,593.229065 
z"/>
<path fill="#36414E" opacity="1.000000" stroke="none" 
	d="
M157.675247,608.176270 
	C158.029297,608.081726 158.057373,608.507141 158.040970,608.719666 
	C156.516678,609.846008 155.008804,610.759827 152.945511,612.010254 
	C150.410309,609.171143 147.796280,606.243774 145.210861,603.348450 
	C142.364273,606.476257 139.285614,609.859009 136.056656,613.406921 
	C134.479324,612.162598 133.356644,611.276917 131.723740,609.988770 
	C138.150314,604.811768 143.167206,599.059143 142.430038,590.757324 
	C140.237747,588.306763 134.867783,592.431030 134.632690,586.043335 
	C137.390869,586.043335 139.646286,586.043335 142.209702,586.043335 
	C142.432739,583.961975 142.619370,582.220215 142.839233,580.168457 
	C144.413208,580.168457 145.958038,580.168457 147.788147,580.168457 
	C147.923279,581.991516 148.053513,583.748291 148.216751,585.950500 
	C150.056152,585.950500 151.706406,585.758179 153.278915,586.024658 
	C154.181992,586.177612 154.959015,587.074585 155.792786,587.636597 
	C154.959396,588.383728 154.225723,589.557861 153.269974,589.780945 
	C151.723770,590.141968 150.031631,589.878052 148.092163,589.878052 
	C147.529968,598.148926 151.278275,603.776978 157.675247,608.176270 
z"/>
<path fill="#36414E" opacity="1.000000" stroke="none" 
	d="
M258.790344,622.973083 
	C252.169693,625.618103 245.757172,625.843567 239.360596,623.938354 
	C235.635895,622.828979 231.870529,621.184387 231.951157,616.398071 
	C232.029404,611.753113 235.576324,609.315430 239.375900,608.902161 
	C245.336609,608.253967 251.534256,608.153381 257.412018,609.135254 
	C259.944000,609.558228 263.247925,613.012207 263.741852,615.565002 
	C264.137604,617.610413 260.818695,620.374573 258.790344,622.973083 
M250.156738,611.963684 
	C247.697998,612.161072 245.110443,611.954346 242.821381,612.684082 
	C240.997253,613.265503 239.537338,614.989441 237.915771,616.206238 
	C239.458984,617.471619 240.821747,619.297668 242.589142,619.866516 
	C245.028763,620.651611 247.942551,621.159668 250.343475,620.555542 
	C253.127609,619.854858 255.576141,617.820679 258.170380,616.365417 
	C255.784271,614.924072 253.398163,613.482788 250.156738,611.963684 
z"/>
<path fill="#36414E" opacity="1.000000" stroke="none" 
	d="
M190.987183,593.615295 
	C187.722321,591.865417 184.454468,589.379700 185.985764,585.538452 
	C187.111282,582.715088 190.123596,579.212158 192.787643,578.729248 
	C198.486664,577.696167 204.616150,577.765625 210.341675,578.731995 
	C212.886871,579.161560 215.862381,582.479004 216.891159,585.158142 
	C218.368134,589.004578 215.173599,591.505127 211.224152,593.463684 
	C208.948761,594.225769 207.346649,594.778748 205.355865,595.311646 
	C202.313080,595.333557 199.658966,595.375549 196.723480,595.258789 
	C194.623779,594.605164 192.805481,594.110229 190.987183,593.615295 
M198.307907,581.714539 
	C196.595291,582.285156 194.725861,582.588928 193.203827,583.483765 
	C190.331131,585.172607 190.287262,587.274841 193.027664,589.286438 
	C196.694366,591.977905 206.596802,591.700073 210.122375,588.838318 
	C212.652649,586.784424 212.390717,584.469788 209.632202,583.504944 
	C206.307816,582.342163 202.628296,582.194519 198.307907,581.714539 
z"/>
<path fill="#36414E" opacity="1.000000" stroke="none" 
	d="
M487.985809,606.995544 
	C487.912048,606.552124 487.838318,606.108765 488.305084,605.350586 
	C491.567932,604.680420 494.290283,604.324951 497.012634,603.969543 
	C508.036682,603.895142 519.060730,603.820679 530.649902,604.092529 
	C531.488586,604.623413 531.762146,604.808044 532.035645,604.992615 
	C532.104370,606.236633 532.173096,607.480713 532.255493,608.971436 
	C526.009216,608.971436 520.229187,608.971436 513.855591,608.971436 
	C513.855591,614.077026 513.855591,618.957153 513.855591,624.020386 
	C511.336304,624.020386 509.416779,624.020386 507.073273,624.020386 
	C507.073273,619.063477 507.073273,614.307739 507.073273,608.782104 
	C500.573273,608.782104 494.484283,608.782104 488.389862,608.276245 
	C488.251556,607.512146 488.118683,607.253845 487.985809,606.995544 
z"/>
<path fill="#343F4C" opacity="1.000000" stroke="none" 
	d="
M189.615997,622.494873 
	C184.503738,617.532227 184.813873,613.519043 190.613785,610.555908 
	C197.819092,606.874695 205.386063,606.704773 212.593323,610.369690 
	C214.600113,611.390137 216.930313,614.323669 216.833008,616.265320 
	C216.720123,618.517456 214.575836,621.598694 212.476486,622.652100 
	C205.140656,626.332764 197.460175,626.055969 189.615997,622.494873 
M196.733353,612.947571 
	C194.688202,614.351501 189.384567,614.310547 193.320847,618.657532 
	C197.143616,622.879028 207.995300,621.210388 211.638214,616.160400 
	C207.700745,611.792114 202.740265,611.812866 196.733353,612.947571 
z"/>
<path fill="#3A4551" opacity="1.000000" stroke="none" 
	d="
M539.996338,580.972534 
	C544.690613,580.927490 549.384827,580.882446 554.630981,581.277649 
	C556.141174,583.259338 557.855591,584.766785 557.926758,586.348145 
	C558.232239,593.137756 558.199341,599.955322 557.911072,606.746643 
	C557.862610,607.888672 556.010864,609.819763 554.885498,609.900757 
	C550.009521,610.251465 545.093933,610.051025 539.996338,610.051025 
	C539.996338,600.183777 539.996338,590.578125 539.996338,580.972534 
M544.675537,607.038086 
	C547.615295,607.038086 550.554993,607.038086 553.734619,607.038086 
	C553.734619,599.701782 553.734619,592.684692 553.734619,585.577759 
	C550.367676,585.577759 547.321106,585.577759 544.113708,585.577759 
	C544.113708,592.686035 544.113708,599.472229 544.675537,607.038086 
z"/>
<path fill="#404C58" opacity="1.000000" stroke="none" 
	d="
M365.914856,583.607239 
	C365.870850,582.643311 365.826813,581.679443 366.280640,580.388062 
	C368.143951,580.032532 369.509430,580.004517 370.874908,579.976562 
	C370.874908,585.258057 370.874908,590.539490 370.874908,596.031677 
	C360.354431,596.031677 349.979431,596.031677 339.353333,596.031677 
	C339.353333,590.350220 339.353333,584.924133 339.353333,578.963379 
	C340.949036,578.841980 342.672424,578.710876 344.776611,578.550720 
	C344.891052,580.269104 344.985382,581.685059 345.075073,583.934448 
	C345.098907,585.331116 345.127350,585.894531 345.119202,586.872070 
	C345.082611,588.740601 345.082611,590.195007 345.082611,591.960876 
	C352.261353,591.960876 359.052734,591.960876 366.204193,591.933228 
	C368.729553,590.311584 368.906006,588.971375 365.970062,587.784058 
	C365.846283,587.222534 365.820526,586.892639 365.850037,586.072327 
	C365.908508,584.923706 365.911682,584.265503 365.914856,583.607239 
z"/>
<path fill="#3A4551" opacity="1.000000" stroke="none" 
	d="
M228.495544,598.905762 
	C233.386383,598.906189 237.829590,598.906189 242.580170,598.906189 
	C242.709335,596.002563 242.817505,593.570740 242.942230,590.766968 
	C245.053329,590.766968 247.095398,590.766968 249.651978,590.766968 
	C249.775558,593.257446 249.902283,595.811401 250.054550,598.880005 
	C256.902588,598.880005 263.632385,598.880005 270.635925,598.880005 
	C270.635925,600.768372 270.635925,602.134827 270.635925,603.726196 
	C255.975098,603.726196 241.576584,603.726196 225.879593,603.726196 
	C226.739639,601.814026 227.393784,600.359680 228.495544,598.905762 
z"/>
<path fill="#303C4A" opacity="1.000000" stroke="none" 
	d="
M452.888489,612.864014 
	C455.333740,612.863525 457.297211,612.863525 459.578156,612.863525 
	C459.741333,610.763611 459.877045,609.016968 460.031982,607.023010 
	C461.897797,607.023010 463.648376,607.023010 465.708160,607.023010 
	C465.884399,608.761719 466.061951,610.513367 466.288513,612.748718 
	C472.326019,612.748718 478.383759,612.748718 484.710022,612.748718 
	C484.710022,614.628601 484.710022,616.029663 484.710022,617.744446 
	C470.134735,617.744446 455.590149,617.744446 440.443146,617.744446 
	C440.357971,616.419189 440.261505,614.918518 440.129517,612.864441 
	C444.522034,612.864441 448.464355,612.864441 452.888489,612.864014 
z"/>
<path fill="#36414E" opacity="1.000000" stroke="none" 
	d="
M407.118927,596.794189 
	C411.130737,600.784119 404.747589,599.441650 406.110840,602.042786 
	C405.627106,602.038696 405.143402,602.034546 404.659668,602.030457 
	C401.838013,599.546326 399.016357,597.062256 396.093201,594.488770 
	C391.510010,596.900574 390.762665,606.593140 381.802063,602.871948 
	C389.219025,596.682739 394.043365,589.490784 392.733978,579.330261 
	C394.845917,579.330261 396.435089,579.330261 398.825897,579.330261 
	C397.698364,586.835266 400.117615,592.820007 407.118927,596.794189 
z"/>
<path fill="#4C5661" opacity="1.000000" stroke="none" 
	d="
M264.691101,580.559448 
	C264.687378,585.626099 264.687378,590.249817 264.687378,595.265320 
	C262.653076,595.265320 260.977295,595.265320 258.919189,595.265320 
	C258.919189,591.458252 258.919189,587.870422 258.919189,583.646240 
	C251.147156,583.646240 243.734283,583.751587 236.329529,583.553772 
	C234.919342,583.516052 233.541229,582.279602 232.148346,581.596313 
	C233.589157,580.805603 234.992249,579.417419 236.477066,579.323730 
	C244.560883,578.813293 252.663483,578.536316 260.763245,578.407471 
	C262.064392,578.386841 263.383850,579.517944 264.691101,580.559448 
z"/>
<path fill="#323E4C" opacity="1.000000" stroke="none" 
	d="
M112.378296,582.026733 
	C112.712685,594.875732 112.712685,607.455505 112.712685,620.348938 
	C110.847061,620.498657 109.252045,620.626648 107.231575,620.788818 
	C107.231575,607.694214 107.231575,594.863403 107.231575,581.757446 
	C108.815300,581.757446 110.429604,581.757446 112.378296,582.026733 
z"/>
<path fill="#454F5B" opacity="1.000000" stroke="none" 
	d="
M310.506378,607.905396 
	C308.716888,608.465515 306.927399,609.025574 304.464508,609.796448 
	C304.464508,601.508850 304.464508,594.131653 304.464508,585.796936 
	C296.441833,585.796936 288.897308,585.796936 281.503113,585.153687 
	C282.361572,583.705872 283.056000,582.216125 283.779938,582.201660 
	C292.023651,582.036621 300.271851,582.096741 308.966492,582.096741 
	C308.966492,589.787659 308.882721,596.746155 309.036224,603.699402 
	C309.067413,605.111511 309.993073,606.503967 310.506378,607.905396 
z"/>
<path fill="#404C58" opacity="1.000000" stroke="none" 
	d="
M163.352264,503.688293 
	C162.774429,502.167084 162.092911,500.289398 162.086304,498.409302 
	C162.010895,476.934204 161.949799,455.458069 162.119125,433.984039 
	C162.149933,430.079468 161.097015,428.608521 157.070663,428.889435 
	C152.432327,429.213043 147.753403,428.955109 142.484894,428.709869 
	C141.563141,428.303589 141.248596,428.137146 140.934052,427.970703 
	C141.335037,427.581421 141.732788,426.856567 142.137512,426.852661 
	C149.244934,426.783661 156.353241,426.802795 163.846909,426.802795 
	C163.846909,433.366699 163.869339,439.479706 163.842758,445.592499 
	C163.759094,464.838623 163.657028,484.084625 163.352264,503.688293 
z"/>
<path fill="#343F4C" opacity="1.000000" stroke="none" 
	d="
M211.617783,597.209534 
	C211.646698,597.937317 211.675629,598.665161 211.844299,600.159424 
	C215.844391,601.361206 219.704712,601.796570 223.565048,602.231934 
	C222.647354,603.184021 221.740295,604.953491 220.810410,604.965515 
	C207.096680,605.143677 193.379944,605.088257 178.740158,605.088257 
	C179.326675,603.244629 179.745163,601.929199 180.661301,600.953491 
	C182.854065,601.027283 184.549179,600.761414 186.244293,600.495483 
	C187.696838,599.715149 189.149399,598.934814 191.028381,597.640259 
	C193.066574,597.079956 194.678375,597.033936 196.331451,597.312744 
	C196.542145,598.477417 196.711533,599.317261 196.898834,600.520996 
	C197.936417,600.803589 198.956070,600.722229 200.382812,600.607178 
	C203.269379,600.464905 206.508743,601.463501 206.402634,596.985962 
	C208.410629,597.052063 210.014206,597.130798 211.617783,597.209534 
z"/>
<path fill="#454F5B" opacity="1.000000" stroke="none" 
	d="
M373.892883,601.572327 
	C374.474518,602.828064 375.056183,604.083801 375.985840,606.090820 
	C369.957153,606.090820 365.188416,606.090820 360.191193,606.090820 
	C360.080780,608.618958 359.988159,610.739441 359.878082,613.260010 
	C357.744965,613.260010 355.699890,613.260010 353.265076,613.260010 
	C353.094025,611.068237 352.919342,608.829773 352.688934,605.877136 
	C346.174164,605.877136 339.726868,605.877136 333.414001,605.278564 
	C335.326263,604.136108 337.097382,603.148621 338.883057,603.121643 
	C348.980896,602.968933 359.083038,603.109680 369.181488,602.979736 
	C370.757721,602.959473 372.322693,602.063416 373.892883,601.572327 
z"/>
<path fill="#11A36F" opacity="1.000000" stroke="none" 
	d="
M413.528229,50.975319 
	C412.581909,51.383053 411.176727,51.961079 409.771057,51.962177 
	C352.035095,52.007282 294.299072,52.002323 236.563080,51.985119 
	C235.583267,51.984829 234.603516,51.756763 233.319946,51.352432 
	C237.166397,50.993526 241.316620,50.851017 245.466858,50.850796 
	C301.334290,50.847797 357.201691,50.864624 413.528229,50.975319 
z"/>
<path fill="#343F4C" opacity="1.000000" stroke="none" 
	d="
M573.951721,578.994202 
	C573.951721,593.589783 573.951721,608.185364 573.951721,623.200073 
	C571.919556,623.060364 570.156311,622.939087 568.689880,622.283813 
	C569.327942,620.060852 569.950867,618.374146 569.964539,616.682556 
	C570.053955,605.595947 570.086792,594.507446 569.962463,583.421509 
	C569.929138,580.450256 570.422180,578.497437 573.951721,578.994202 
z"/>
<path fill="#404C58" opacity="1.000000" stroke="none" 
	d="
M371.559692,619.931274 
	C370.829468,620.976135 370.117035,622.915649 369.366333,622.930542 
	C359.230865,623.131958 349.090149,623.065735 338.604980,623.065735 
	C338.604980,618.753479 338.604980,614.677673 338.604980,610.260498 
	C340.515686,610.260498 342.376709,610.260498 344.538147,610.260498 
	C344.663574,612.915100 344.779480,615.368225 345.175873,618.625793 
	C354.157471,619.597290 362.858551,619.764282 371.559692,619.931274 
z"/>
<path fill="#4C5661" opacity="1.000000" stroke="none" 
	d="
M539.574585,580.964600 
	C539.996338,590.578125 539.996338,600.183777 539.996338,610.051025 
	C545.093933,610.051025 550.009521,610.251465 554.885498,609.900757 
	C556.010864,609.819763 557.862610,607.888672 557.911072,606.746643 
	C558.199341,599.955322 558.232239,593.137756 557.926758,586.348145 
	C557.855591,584.766785 556.141174,583.259338 555.092468,581.349731 
	C556.470154,580.915955 557.938171,580.850281 559.693359,580.771790 
	C559.693359,591.078491 559.693359,601.105103 559.693359,611.442078 
	C552.611572,611.442078 545.721863,611.442078 537.761292,611.442078 
	C538.229858,601.177307 538.691406,591.067017 539.574585,580.964600 
z"/>
<path fill="#18222F" opacity="1.000000" stroke="none" 
	d="
M291.986176,422.012421 
	C287.321533,422.005249 282.641022,422.233002 277.997131,421.918976 
	C274.052856,421.652222 272.892242,422.971130 272.917114,426.954254 
	C273.084351,453.775085 273.023834,480.597443 272.989349,507.419250 
	C272.982086,513.067261 272.776672,518.715027 272.378723,524.663940 
	C272.010132,511.499084 271.879852,498.033386 271.851410,484.567444 
	C271.809906,464.936737 271.841705,445.305847 271.842224,425.675049 
	C271.842285,424.041870 271.842224,422.408661 271.842224,419.795563 
	C279.413361,420.303101 286.547729,420.781403 293.240601,421.663391 
	C292.528137,422.048889 292.257141,422.030640 291.986176,422.012421 
z"/>
<path fill="#18222F" opacity="1.000000" stroke="none" 
	d="
M428.958252,453.535706 
	C424.285858,453.981079 419.455811,454.223419 414.659485,453.924622 
	C410.841400,453.686676 409.913818,455.110413 409.929718,458.760834 
	C410.060760,488.816010 410.009460,518.872009 409.989410,548.927795 
	C409.988190,550.738586 409.781555,552.549255 409.387268,554.661194 
	C409.020142,534.660278 408.915771,514.358154 408.859558,494.055939 
	C408.821838,480.432983 408.852386,466.809784 408.852386,453.099091 
	C415.707458,453.099091 422.261292,453.099091 428.958252,453.535706 
z"/>
<path fill="#18222F" opacity="1.000000" stroke="none" 
	d="
M310.592957,607.451904 
	C309.993073,606.503967 309.067413,605.111511 309.036224,603.699402 
	C308.882721,596.746155 308.966492,589.787659 308.966492,582.096741 
	C300.271851,582.096741 292.023651,582.036621 283.779938,582.201660 
	C283.056000,582.216125 282.361572,583.705872 281.353180,584.741821 
	C280.989563,583.528320 280.926239,582.083435 280.858185,580.531311 
	C290.926971,580.531311 300.606018,580.531311 310.679535,580.531311 
	C310.679535,589.547302 310.679535,598.272888 310.592957,607.451904 
z"/>
<path fill="#222E3D" opacity="1.000000" stroke="none" 
	d="
M574.026855,578.744507 
	C570.422180,578.497437 569.929138,580.450256 569.962463,583.421509 
	C570.086792,594.507446 570.053955,605.595947 569.964539,616.682556 
	C569.950867,618.374146 569.327942,620.060852 568.609680,621.862671 
	C568.167236,608.095093 568.147888,594.214111 567.995544,580.334534 
	C567.967041,577.735046 568.851746,576.637207 572.249268,577.400146 
	C573.343933,577.839722 573.629211,577.923950 573.914429,578.008118 
	C573.976929,578.170288 574.039429,578.332520 574.026855,578.744507 
z"/>
<path fill="#18222F" opacity="1.000000" stroke="none" 
	d="
M496.094788,468.453369 
	C496.707245,468.802185 497.898499,469.619934 497.898743,470.438049 
	C497.903046,484.416901 497.759918,498.395813 497.361542,512.673462 
	C496.752655,504.076843 496.355194,495.183350 496.137512,486.285431 
	C495.996002,480.501099 496.116333,474.710388 496.094788,468.453369 
z"/>
<path fill="#222E3D" opacity="1.000000" stroke="none" 
	d="
M517.910156,505.520142 
	C517.252441,505.168304 516.096619,504.354462 516.089478,503.530731 
	C515.992371,492.254303 516.039612,480.976349 516.123779,469.699371 
	C516.127563,469.198486 516.823486,468.702789 517.588745,468.099731 
	C517.969055,480.347687 517.957642,492.700592 517.910156,505.520142 
z"/>
<path fill="#18222F" opacity="1.000000" stroke="none" 
	d="
M140.865875,428.437134 
	C141.248596,428.137146 141.563141,428.303589 142.027771,428.698181 
	C142.120636,451.854218 142.078918,474.782166 141.978271,497.709869 
	C141.969757,499.651337 141.567001,501.591064 140.947174,503.715393 
	C140.630539,478.900635 140.714111,453.902100 140.865875,428.437134 
z"/>
<path fill="#222E3D" opacity="1.000000" stroke="none" 
	d="
M291.992188,422.479797 
	C292.257141,422.030640 292.528137,422.048889 293.200500,422.136932 
	C293.678131,434.182220 293.754364,446.157654 293.750885,458.600281 
	C293.112915,457.507599 292.092499,455.954071 292.071106,454.386932 
	C291.927887,443.908630 291.997620,433.427429 291.992188,422.479797 
z"/>
<path fill="#18222F" opacity="1.000000" stroke="none" 
	d="
M373.442078,601.469238 
	C372.322693,602.063416 370.757721,602.959473 369.181488,602.979736 
	C359.083038,603.109680 348.980896,602.968933 338.883057,603.121643 
	C337.097382,603.148621 335.326263,604.136108 333.203064,604.886963 
	C331.945709,602.084229 333.314575,601.411499 336.121063,601.428589 
	C348.410553,601.503174 360.701111,601.402954 373.442078,601.469238 
z"/>
<path fill="#222E3D" opacity="1.000000" stroke="none" 
	d="
M503.407959,432.258240 
	C503.795959,432.384979 503.800293,432.668396 503.727905,432.689575 
	C496.406036,434.832001 498.227142,440.834045 497.954224,446.046783 
	C497.852936,447.981201 497.082916,449.880615 496.207092,451.868652 
	C495.924835,448.298187 496.515411,444.598175 496.075226,441.025085 
	C495.388092,435.447205 497.430176,432.631195 503.407959,432.258240 
z"/>
<path fill="#222E3D" opacity="1.000000" stroke="none" 
	d="
M365.495026,583.822266 
	C365.911682,584.265503 365.908508,584.923706 365.404541,585.977783 
	C358.321106,586.401733 351.738464,586.429810 345.155792,586.457886 
	C345.127350,585.894531 345.098907,585.331116 345.044739,584.344788 
	C351.704376,583.960266 358.389771,583.998779 365.495026,583.822266 
z"/>
<path fill="#2D3846" opacity="1.000000" stroke="none" 
	d="
M210.603165,451.876343 
	C205.512772,454.332153 200.024902,456.665985 194.134613,459.015869 
	C199.223358,456.606079 204.714523,454.180206 210.603165,451.876343 
z"/>
<path fill="#18222F" opacity="1.000000" stroke="none" 
	d="
M371.377197,619.472290 
	C362.858551,619.764282 354.157471,619.597290 345.254883,619.051270 
	C353.767212,618.785889 362.480988,618.899597 371.377197,619.472290 
z"/>
<path fill="#8C9299" opacity="1.000000" stroke="none" 
	d="
M223.688309,601.835022 
	C219.704712,601.796570 215.844391,601.361206 211.958145,600.505615 
	C215.892014,600.536255 219.851791,600.987183 223.688309,601.835022 
z"/>
<path fill="#2D3846" opacity="1.000000" stroke="none" 
	d="
M421.012817,577.591309 
	C418.195343,577.695068 416.705566,578.623230 416.964630,581.753113 
	C417.093414,583.308838 416.657928,584.911316 416.139740,586.721497 
	C415.801819,583.502930 415.801819,580.055481 415.801819,575.752930 
	C417.925171,576.332825 419.482208,576.758057 421.012817,577.591309 
z"/>
<path fill="#8C9299" opacity="1.000000" stroke="none" 
	d="
M196.290161,596.987915 
	C194.678375,597.033936 193.066574,597.079956 191.067520,597.223145 
	C190.699112,596.403320 190.717972,595.486328 190.862000,594.092285 
	C192.805481,594.110229 194.623779,594.605164 196.695801,595.557373 
	C196.729752,596.339050 196.509949,596.663513 196.290161,596.987915 
z"/>
<path fill="#8C9299" opacity="1.000000" stroke="none" 
	d="
M211.745331,596.765747 
	C210.014206,597.130798 208.410629,597.052063 206.297760,596.719482 
	C205.773834,596.087708 205.759201,595.709717 205.744537,595.331787 
	C207.346649,594.778748 208.948761,594.225769 210.912354,593.652588 
	C211.473511,594.528931 211.673203,595.425415 211.745331,596.765747 
z"/>
<path fill="#2D3846" opacity="1.000000" stroke="none" 
	d="
M220.916107,451.410828 
	C219.193481,451.968628 217.277786,452.183960 215.125488,452.083557 
	C216.833603,451.534637 218.778305,451.301483 220.916107,451.410828 
z"/>
<path fill="#8C9299" opacity="1.000000" stroke="none" 
	d="
M185.891876,600.310974 
	C184.549179,600.761414 182.854065,601.027283 181.097198,600.905273 
	C182.536789,600.387085 184.038132,600.256775 185.891876,600.310974 
z"/>
<path fill="#18222F" opacity="1.000000" stroke="none" 
	d="
M496.568481,603.893799 
	C494.290283,604.324951 491.567932,604.680420 488.402618,605.023315 
	C490.681213,604.613220 493.402740,604.215637 496.568481,603.893799 
z"/>
<path fill="#222E3D" opacity="1.000000" stroke="none" 
	d="
M370.784851,579.600586 
	C369.509430,580.004517 368.143951,580.032532 366.369019,580.035278 
	C367.537994,579.748169 369.116394,579.486328 370.784851,579.600586 
z"/>
<path fill="#404C58" opacity="1.000000" stroke="none" 
	d="
M140.256287,503.906677 
	C140.278168,504.731201 140.104553,505.783478 139.590775,506.929199 
	C139.520660,506.059906 139.790726,505.097168 140.256287,503.906677 
z"/>
<path fill="#2D3846" opacity="1.000000" stroke="none" 
	d="
M226.841278,451.812958 
	C226.444565,452.106567 225.865204,452.275482 225.138000,452.210846 
	C225.546326,451.880951 226.102478,451.784607 226.841278,451.812958 
z"/>
<path fill="#18222F" opacity="1.000000" stroke="none" 
	d="
M532.049561,604.685120 
	C531.762146,604.808044 531.488586,604.623413 531.104614,604.213989 
	C531.350647,604.118713 531.707092,604.248169 532.049561,604.685120 
z"/>
<path fill="#18222F" opacity="1.000000" stroke="none" 
	d="
M487.926941,607.247803 
	C488.118683,607.253845 488.251556,607.512146 488.226624,607.874146 
	C488.001862,607.818542 487.934967,607.659302 487.926941,607.247803 
z"/>
<path fill="#343F4C" opacity="1.000000" stroke="none" 
	d="
M573.924194,577.702026 
	C573.629211,577.923950 573.343933,577.839722 572.683838,577.508057 
	C572.850647,577.305786 573.392273,577.350891 573.924194,577.702026 
z"/>
<path fill="#FAFDFC" opacity="1.000000" stroke="none" 
	d="
M415.436951,292.255157 
	C409.463776,311.695251 398.389526,319.851166 377.986206,319.848572 
	C341.169006,319.843842 304.351807,319.861023 267.534607,319.834747 
	C245.332123,319.818909 231.001266,305.459442 230.988541,283.221252 
	C230.966812,245.237915 231.202591,207.252747 230.894806,169.271896 
	C230.728363,148.730606 243.955826,130.647034 268.108276,131.874619 
	C270.411835,131.991699 272.726501,131.890244 275.487183,131.890244 
	C275.621094,129.275040 275.697571,127.005249 275.860657,124.741692 
	C276.357635,117.843559 280.805511,113.060333 287.717072,113.008942 
	C311.371796,112.833046 335.029144,112.853867 358.684265,112.998512 
	C365.022095,113.037262 369.144653,116.901360 370.334808,123.232521 
	C370.823059,125.829926 370.863403,128.511536 371.170990,131.842331 
	C392.072693,130.663727 409.044128,136.413574 415.325989,160.002625 
	C415.655487,163.078949 415.859772,165.399063 415.860657,167.719238 
	C415.875397,205.754776 415.875397,243.790314 415.841003,281.825806 
	C415.837860,285.302399 415.577759,288.778717 415.436951,292.255157 
M294.524811,154.503357 
	C294.524811,154.503357 294.638458,154.582733 294.949158,154.987320 
	C295.274384,155.064362 295.599579,155.141403 296.426758,155.639694 
	C297.291992,155.694031 298.157227,155.748367 299.934021,156.023346 
	C315.082703,156.026886 330.231567,156.063782 345.379883,155.992020 
	C347.289215,155.982971 349.195862,155.402603 351.018127,155.033234 
	C351.018127,155.033234 351.059418,155.125473 351.605377,155.075943 
	C351.842560,154.816193 352.079742,154.556427 352.027069,154.149963 
	C352.027069,154.149963 352.295074,154.333572 352.801331,154.136581 
	C352.962341,153.822983 353.123352,153.509384 353.128204,153.015045 
	C353.128204,153.015045 353.245697,153.223007 353.856293,152.730743 
	C354.347961,144.912979 354.839661,137.095215 355.328552,129.321686 
	C333.264984,129.321686 312.401062,129.321686 291.123779,129.321686 
	C291.123779,135.463623 290.928528,141.260208 291.224731,147.031540 
	C291.335358,149.186600 292.592682,151.282776 293.447510,153.546341 
	C293.447510,153.546341 293.587799,153.666992 293.744141,154.031235 
	C293.904877,154.261078 294.123810,154.397690 294.524811,154.503357 
M256.903198,301.167999 
	C256.903198,301.167999 256.781921,301.243408 257.147247,301.742493 
	C257.737610,301.895599 258.327972,302.048676 258.939850,302.103394 
	C258.939850,302.103394 258.848450,302.145660 259.311737,302.662384 
	C260.886322,302.923889 262.460907,303.185425 264.654114,303.684540 
	C265.092560,303.659698 265.531036,303.634857 266.882690,303.854553 
	C304.949005,303.874603 343.015350,303.926300 381.081421,303.838348 
	C383.438110,303.832916 385.792267,302.728271 388.057098,302.093292 
	C388.057098,302.093292 388.079224,302.190460 388.754150,302.146912 
	C389.854187,301.438019 390.954224,300.729156 392.690796,299.785919 
	C397.100891,296.193726 399.210388,291.601837 399.205994,285.866547 
	C399.175385,245.752014 399.209625,205.637421 399.236145,165.522842 
	C399.240967,158.245682 395.619843,153.173294 389.398132,149.980774 
	C383.562134,146.986191 377.284851,147.603088 371.090424,148.093475 
	C370.259796,161.556244 364.582306,168.569473 351.059143,172.094193 
	C332.620972,172.175125 314.182800,172.256042 295.210876,171.970200 
	C286.711853,170.511978 281.110840,165.290253 277.029205,157.181351 
	C276.432465,154.172714 275.835754,151.164062 274.951538,146.705902 
	C268.797211,147.967529 262.712982,149.214767 256.613922,150.550797 
	C256.613922,150.550797 256.536194,150.505432 255.930252,150.624649 
	C255.174301,151.287735 254.418350,151.950821 253.970795,152.665771 
	C253.970795,152.665771 253.659470,152.644211 253.170898,152.803131 
	C252.989914,153.082993 252.808945,153.362854 252.620758,153.911942 
	C252.620758,153.911942 252.586624,153.644760 251.986206,153.940399 
	C250.348785,158.525909 247.336044,163.097702 247.290222,167.699051 
	C246.903839,206.500641 246.947861,245.308411 247.221176,284.111786 
	C247.249466,288.125153 249.613663,292.122101 250.972839,296.013458 
	C250.972839,296.013458 250.864151,296.098419 251.029984,296.733429 
	C252.319763,297.869232 253.609543,299.005035 254.984390,300.033051 
	C254.984390,300.033051 254.869339,300.108002 255.162811,300.646484 
	C255.723175,300.863617 256.283539,301.080750 256.903198,301.167999 
z"/>
<path fill="#11A36F" opacity="1.000000" stroke="none" 
	d="
M415.825439,291.996735 
	C415.577759,288.778717 415.837860,285.302399 415.841003,281.825806 
	C415.875397,243.790314 415.875397,205.754776 415.860657,167.719238 
	C415.859772,165.399063 415.655487,163.078949 415.537506,160.262573 
	C416.020294,161.410324 416.937042,163.053482 416.940247,164.698395 
	C417.019989,205.614105 417.011200,246.530014 416.970337,287.445831 
	C416.968903,288.876892 416.477142,290.307495 415.825439,291.996735 
z"/>
<path fill="#F9FAFA" opacity="1.000000" stroke="none" 
	d="
M446.041565,467.482910 
	C452.248535,467.475800 455.845428,470.630096 457.452576,475.892181 
	C460.363525,485.422943 459.821564,494.910767 456.285065,504.226166 
	C452.736206,513.574219 440.267395,515.973755 432.070465,511.414001 
	C431.099823,510.874023 430.379700,509.021606 430.362427,507.766357 
	C430.225159,497.782196 430.185272,487.793243 430.390228,477.811432 
	C430.422424,476.243530 431.440247,473.964020 432.691467,473.286896 
	C436.841278,471.041077 441.305908,469.377045 446.041565,467.482910 
z"/>
<path fill="#FAFBFB" opacity="1.000000" stroke="none" 
	d="
M319.532471,502.892914 
	C316.495605,510.549683 309.486847,512.764648 302.572998,514.469238 
	C300.133453,515.070679 297.090973,513.226807 294.069275,511.772766 
	C293.777863,499.038208 293.740967,487.030273 293.704102,475.022400 
	C297.404633,472.646759 300.818359,469.305115 304.867310,468.102936 
	C312.540710,465.824646 316.484283,468.270264 320.188416,476.242676 
	C320.665955,477.568726 320.889282,478.270599 321.112610,478.972473 
	C321.079712,479.156128 321.046814,479.339783 321.140442,480.160400 
	C321.515594,482.863861 321.764191,484.930328 322.012787,486.996826 
	C321.942535,488.062500 321.872253,489.128174 321.747681,490.963806 
	C320.973053,495.453461 320.252747,499.173187 319.532471,502.892914 
z"/>
<path fill="#222E3D" opacity="1.000000" stroke="none" 
	d="
M293.335022,475.146454 
	C293.740967,487.030273 293.777863,499.038208 293.779236,511.512085 
	C293.163788,511.118835 292.087555,510.264374 292.079224,509.399597 
	C291.974945,498.571808 292.011810,487.742371 292.075592,476.913788 
	C292.078827,476.364288 292.655975,475.818207 293.335022,475.146454 
z"/>
<path fill="#222E3D" opacity="1.000000" stroke="none" 
	d="
M319.892456,502.772827 
	C320.252747,499.173187 320.973053,495.453461 321.819580,491.359741 
	C324.391632,495.311646 322.432739,498.998230 319.892456,502.772827 
z"/>
<path fill="#222E3D" opacity="1.000000" stroke="none" 
	d="
M322.295959,486.745361 
	C321.764191,484.930328 321.515594,482.863861 321.267944,480.409546 
	C321.705627,482.179108 322.142395,484.336487 322.295959,486.745361 
z"/>
<path fill="#222E3D" opacity="1.000000" stroke="none" 
	d="
M321.358795,478.740295 
	C320.889282,478.270599 320.665955,477.568726 320.380371,476.502686 
	C320.747009,476.928406 321.175995,477.718292 321.358795,478.740295 
z"/>
<path fill="#FAFBFB" opacity="1.000000" stroke="none" 
	d="
M205.520721,507.255432 
	C201.407990,497.678009 201.077667,488.215424 204.114044,478.710022 
	C206.502151,471.233978 211.771713,467.620636 218.992142,468.003113 
	C225.589020,468.352600 230.739014,472.301392 231.674881,479.855011 
	C232.597168,487.298920 232.398712,495.021332 231.586136,502.501404 
	C230.771042,510.004456 224.836548,514.419922 218.114197,515.124390 
	C213.448135,515.613403 208.272980,512.717529 205.520721,507.255432 
z"/>
<path fill="#EEEFF0" opacity="1.000000" stroke="none" 
	d="
M84.572952,590.475769 
	C86.200188,595.359497 87.674820,599.885254 89.330772,604.967468 
	C85.295036,604.967468 81.799545,604.967468 77.508331,604.967468 
	C79.083344,599.776917 80.617149,594.691101 82.259018,589.640442 
	C82.281082,589.572510 83.669601,589.948792 84.572952,590.475769 
z"/>
<path fill="#F5F5F6" opacity="1.000000" stroke="none" 
	d="
M498.925720,592.907776 
	C498.801788,590.871704 498.304230,588.812317 499.076904,587.501953 
	C502.380157,581.900208 516.404602,581.981323 519.925842,587.526001 
	C522.189819,591.090942 520.272949,593.511169 517.237976,595.289551 
	C512.050842,598.329041 504.302307,597.393982 498.925720,592.907776 
z"/>
<path fill="#F3F4F4" opacity="1.000000" stroke="none" 
	d="
M250.584396,612.002563 
	C253.398163,613.482788 255.784271,614.924072 258.170380,616.365417 
	C255.576141,617.820679 253.127609,619.854858 250.343475,620.555542 
	C247.942551,621.159668 245.028763,620.651611 242.589142,619.866516 
	C240.821747,619.297668 239.458984,617.471619 237.915771,616.206238 
	C239.537338,614.989441 240.997253,613.265503 242.821381,612.684082 
	C245.110443,611.954346 247.697998,612.161072 250.584396,612.002563 
z"/>
<path fill="#F3F4F4" opacity="1.000000" stroke="none" 
	d="
M198.705200,581.661011 
	C202.628296,582.194519 206.307816,582.342163 209.632202,583.504944 
	C212.390717,584.469788 212.652649,586.784424 210.122375,588.838318 
	C206.596802,591.700073 196.694366,591.977905 193.027664,589.286438 
	C190.287262,587.274841 190.331131,585.172607 193.203827,583.483765 
	C194.725861,582.588928 196.595291,582.285156 198.705200,581.661011 
z"/>
<path fill="#F5F5F6" opacity="1.000000" stroke="none" 
	d="
M205.355865,595.311646 
	C205.759201,595.709717 205.773834,596.087708 205.893341,596.732178 
	C206.508743,601.463501 203.269379,600.464905 200.142593,600.387634 
	C198.623840,600.186890 197.752380,600.171936 196.880936,600.156982 
	C196.711533,599.317261 196.542145,598.477417 196.331451,597.312744 
	C196.509949,596.663513 196.729752,596.339050 196.977203,595.716064 
	C199.658966,595.375549 202.313080,595.333557 205.355865,595.311646 
z"/>
<path fill="#EEEFF0" opacity="1.000000" stroke="none" 
	d="
M197.131485,612.872131 
	C202.740265,611.812866 207.700745,611.792114 211.638214,616.160400 
	C207.995300,621.210388 197.143616,622.879028 193.320847,618.657532 
	C189.384567,614.310547 194.688202,614.351501 197.131485,612.872131 
z"/>
<path fill="#F5F5F6" opacity="1.000000" stroke="none" 
	d="
M544.394653,606.648193 
	C544.113708,599.472229 544.113708,592.686035 544.113708,585.577759 
	C547.321106,585.577759 550.367676,585.577759 553.734619,585.577759 
	C553.734619,592.684692 553.734619,599.701782 553.734619,607.038086 
	C550.554993,607.038086 547.615295,607.038086 544.394653,606.648193 
z"/>
<path fill="#E6E7E8" opacity="1.000000" stroke="none" 
	d="
M345.119202,586.872070 
	C351.738464,586.429810 358.321106,586.401733 365.349304,586.468140 
	C365.820526,586.892639 365.846283,587.222534 365.913818,588.175659 
	C365.918427,589.852905 365.881287,590.906860 365.844116,591.960876 
	C359.052734,591.960876 352.261353,591.960876 345.082611,591.960876 
	C345.082611,590.195007 345.082611,588.740601 345.119202,586.872070 
z"/>
<path fill="#222E3D" opacity="1.000000" stroke="none" 
	d="
M366.204224,591.933228 
	C365.881287,590.906860 365.918427,589.852905 366.011841,588.407227 
	C368.906006,588.971375 368.729553,590.311584 366.204224,591.933228 
z"/>
<path fill="#8C9299" opacity="1.000000" stroke="none" 
	d="
M196.898834,600.520996 
	C197.752380,600.171936 198.623840,600.186890 199.735504,600.421265 
	C198.956070,600.722229 197.936417,600.803589 196.898834,600.520996 
z"/>
<path fill="#16B079" opacity="1.000000" stroke="none" 
	d="
M351.994354,172.152374 
	C364.582306,168.569473 370.259796,161.556244 371.090424,148.093475 
	C377.284851,147.603088 383.562134,146.986191 389.398132,149.980774 
	C395.619843,153.173294 399.240967,158.245682 399.236145,165.522842 
	C399.209625,205.637421 399.175385,245.752014 399.205994,285.866547 
	C399.210388,291.601837 397.100891,296.193726 392.028992,299.918579 
	C390.271179,300.764313 389.175201,301.477386 388.079224,302.190430 
	C388.079224,302.190460 388.057098,302.093292 387.623413,302.063965 
	C348.359039,302.030426 309.528320,302.007538 270.697815,302.089050 
	C269.120636,302.092377 267.545532,303.080658 265.969482,303.610046 
	C265.531036,303.634857 265.092560,303.659698 264.204102,303.246033 
	C262.118866,302.586914 260.483673,302.366272 258.848450,302.145660 
	C258.848450,302.145660 258.939850,302.103394 258.785278,301.854187 
	C258.014435,301.484497 257.398193,301.363953 256.781921,301.243408 
	C256.781921,301.243408 256.903198,301.167999 256.773621,300.921051 
	C256.052460,300.485413 255.460892,300.296722 254.869339,300.108032 
	C254.869339,300.108002 254.984390,300.033051 254.940613,299.729034 
	C253.552597,298.316162 252.208374,297.207275 250.864151,296.098419 
	C250.864151,296.098419 250.972839,296.013458 250.959930,295.660400 
	C250.290192,289.245422 249.111328,283.187347 249.066116,277.120819 
	C248.861237,249.636154 248.630722,222.142944 249.122498,194.665543 
	C249.367676,180.967361 246.066360,166.849518 252.586624,153.644760 
	C252.586624,153.644760 252.620758,153.911942 252.916199,153.769897 
	C253.360901,153.299973 253.510193,152.972092 253.659470,152.644211 
	C253.659470,152.644211 253.970795,152.665771 254.179199,152.726837 
	C255.103806,152.027069 255.819992,151.266251 256.536194,150.505432 
	C256.536194,150.505432 256.613922,150.550797 257.033997,150.660919 
	C259.385773,150.431870 261.340973,150.190933 263.245148,149.736435 
	C271.445221,147.779236 272.286713,148.188232 275.404114,155.653259 
	C275.767670,156.523849 276.518616,157.232681 277.089966,158.016495 
	C281.110840,165.290253 286.711853,170.511978 295.720093,172.565216 
	C296.989227,173.432388 297.748444,173.939789 298.509216,173.942154 
	C315.338348,173.994614 332.167847,174.022842 348.996460,173.919525 
	C349.999359,173.913361 350.995239,172.767761 351.994354,172.152374 
z"/>
<path fill="#17B079" opacity="1.000000" stroke="none" 
	d="
M299.022461,155.802689 
	C298.157227,155.748367 297.291992,155.694031 296.059814,155.165283 
	C295.341400,154.654831 294.989929,154.618774 294.638458,154.582733 
	C294.638458,154.582733 294.524811,154.503357 294.543701,154.187042 
	C294.237640,153.802826 293.912720,153.734909 293.587799,153.666992 
	C293.587799,153.666992 293.447510,153.546341 293.559692,153.055969 
	C293.443268,146.443787 293.263000,140.319656 292.966675,134.201126 
	C292.807281,130.910568 294.925751,130.956940 297.223785,130.965820 
	C305.372681,130.997299 313.521790,130.977280 321.670807,130.977142 
	C332.111298,130.976944 342.551819,130.977097 353.245697,130.977097 
	C353.245697,138.687714 353.245697,145.955353 353.245697,153.223007 
	C353.245697,153.223007 353.128204,153.015045 352.920349,153.165405 
	C352.573364,153.655014 352.434204,153.994293 352.295044,154.333572 
	C352.295074,154.333572 352.027069,154.149963 351.889221,154.222351 
	C351.520721,154.571640 351.290070,154.848557 351.059418,155.125488 
	C351.059418,155.125473 351.018127,155.033234 350.585144,155.023407 
	C334.699036,155.007751 319.245850,154.978424 303.792969,155.031448 
	C302.201935,155.036911 300.612579,155.533813 299.022461,155.802689 
z"/>
<path fill="#2CB17E" opacity="1.000000" stroke="none" 
	d="
M252.286407,153.792572 
	C246.066360,166.849518 249.367676,180.967361 249.122498,194.665543 
	C248.630722,222.142944 248.861237,249.636154 249.066116,277.120819 
	C249.111328,283.187347 250.290192,289.245422 250.920502,295.717010 
	C249.613663,292.122101 247.249466,288.125153 247.221176,284.111786 
	C246.947861,245.308411 246.903839,206.500641 247.290222,167.699051 
	C247.336044,163.097702 250.348785,158.525909 252.286407,153.792572 
z"/>
<path fill="#2CB17E" opacity="1.000000" stroke="none" 
	d="
M266.426086,303.732300 
	C267.545532,303.080658 269.120636,302.092377 270.697815,302.089050 
	C309.528320,302.007538 348.359039,302.030426 387.668640,302.084839 
	C385.792267,302.728271 383.438110,303.832916 381.081421,303.838348 
	C343.015350,303.926300 304.949005,303.874603 266.426086,303.732300 
z"/>
<path fill="#2CB17E" opacity="1.000000" stroke="none" 
	d="
M353.550995,152.976868 
	C353.245697,145.955353 353.245697,138.687714 353.245697,130.977097 
	C342.551819,130.977097 332.111298,130.976944 321.670807,130.977142 
	C313.521790,130.977280 305.372681,130.997299 297.223785,130.965820 
	C294.925751,130.956940 292.807281,130.910568 292.966675,134.201126 
	C293.263000,140.319656 293.443268,146.443787 293.499512,152.985703 
	C292.592682,151.282776 291.335358,149.186600 291.224731,147.031540 
	C290.928528,141.260208 291.123779,135.463623 291.123779,129.321686 
	C312.401062,129.321686 333.264984,129.321686 355.328552,129.321686 
	C354.839661,137.095215 354.347961,144.912979 353.550995,152.976868 
z"/>
<path fill="#11A36F" opacity="1.000000" stroke="none" 
	d="
M351.526733,172.123291 
	C350.995239,172.767761 349.999359,173.913361 348.996460,173.919525 
	C332.167847,174.022842 315.338348,173.994614 298.509216,173.942154 
	C297.748444,173.939789 296.989227,173.432388 295.986969,172.748596 
	C314.182800,172.256042 332.620972,172.175125 351.526733,172.123291 
z"/>
<path fill="#2CB17E" opacity="1.000000" stroke="none" 
	d="
M299.478241,155.913025 
	C300.612579,155.533813 302.201935,155.036911 303.792969,155.031448 
	C319.245850,154.978424 334.699036,155.007751 350.627930,155.050262 
	C349.195862,155.402603 347.289215,155.982971 345.379883,155.992020 
	C330.231567,156.063782 315.082703,156.026886 299.478241,155.913025 
z"/>
<path fill="#2CB17E" opacity="1.000000" stroke="none" 
	d="
M277.059570,157.598923 
	C276.518616,157.232681 275.767670,156.523849 275.404114,155.653259 
	C272.286713,148.188232 271.445221,147.779236 263.245148,149.736435 
	C261.340973,150.190933 259.385773,150.431870 257.041443,150.616547 
	C262.712982,149.214767 268.797211,147.967529 274.951538,146.705902 
	C275.835754,151.164062 276.432465,154.172714 277.059570,157.598923 
z"/>
<path fill="#2CB17E" opacity="1.000000" stroke="none" 
	d="
M250.947067,296.415924 
	C252.208374,297.207275 253.552597,298.316162 254.898071,299.782928 
	C253.609543,299.005035 252.319763,297.869232 250.947067,296.415924 
z"/>
<path fill="#2CB17E" opacity="1.000000" stroke="none" 
	d="
M259.080078,302.404022 
	C260.483673,302.366272 262.118866,302.586914 263.894775,303.127258 
	C262.460907,303.185425 260.886322,302.923889 259.080078,302.404022 
z"/>
<path fill="#2CB17E" opacity="1.000000" stroke="none" 
	d="
M256.233215,150.565033 
	C255.819992,151.266251 255.103806,152.027069 254.024994,152.700897 
	C254.418350,151.950821 255.174301,151.287735 256.233215,150.565033 
z"/>
<path fill="#2CB17E" opacity="1.000000" stroke="none" 
	d="
M388.416687,302.168671 
	C389.175201,301.477386 390.271179,300.764313 391.710693,300.035767 
	C390.954224,300.729156 389.854187,301.438019 388.416687,302.168671 
z"/>
<path fill="#2CB17E" opacity="1.000000" stroke="none" 
	d="
M256.964600,301.492950 
	C257.398193,301.363953 258.014435,301.484497 258.774536,301.903381 
	C258.327972,302.048676 257.737610,301.895599 256.964600,301.492950 
z"/>
<path fill="#2CB17E" opacity="1.000000" stroke="none" 
	d="
M255.016083,300.377258 
	C255.460892,300.296722 256.052460,300.485413 256.743958,300.986023 
	C256.283539,301.080750 255.723175,300.863617 255.016083,300.377258 
z"/>
<path fill="#2CB17E" opacity="1.000000" stroke="none" 
	d="
M351.332397,155.100708 
	C351.290070,154.848557 351.520721,154.571640 352.034180,154.295700 
	C352.079742,154.556427 351.842560,154.816193 351.332397,155.100708 
z"/>
<path fill="#2CB17E" opacity="1.000000" stroke="none" 
	d="
M294.793823,154.785034 
	C294.989929,154.618774 295.341400,154.654831 295.808838,154.954666 
	C295.599579,155.141403 295.274384,155.064362 294.793823,154.785034 
z"/>
<path fill="#2CB17E" opacity="1.000000" stroke="none" 
	d="
M352.548187,154.235077 
	C352.434204,153.994293 352.573364,153.655014 352.998444,153.255768 
	C353.123352,153.509384 352.962341,153.822983 352.548187,154.235077 
z"/>
<path fill="#2CB17E" opacity="1.000000" stroke="none" 
	d="
M293.665955,153.849121 
	C293.912720,153.734909 294.237640,153.802826 294.481750,154.155899 
	C294.123810,154.397690 293.904877,154.261078 293.665955,153.849121 
z"/>
<path fill="#2CB17E" opacity="1.000000" stroke="none" 
	d="
M253.415192,152.723663 
	C253.510193,152.972092 253.360901,153.299973 252.919800,153.635284 
	C252.808945,153.362854 252.989914,153.082993 253.415192,152.723663 
z"/>
</svg>